<svg xmlns="http://www.w3.org/2000/svg" xmlns:xlink="http://www.w3.org/1999/xlink" width="400" height="519" viewBox="0 0 400 519">
  <defs>
    <clipPath id="clip-path">
      <rect id="Rectangle_377629" data-name="Rectangle 377629" width="400" height="518" transform="translate(1020 1017)" fill="#fff" stroke="#707070" stroke-width="1"/>
    </clipPath>
    <clipPath id="clip-path-2">
      <rect id="Rectangle_377628" data-name="Rectangle 377628" width="578.363" height="516.703" transform="translate(0 0)" fill="#faffd7"/>
    </clipPath>
    <clipPath id="clip-path-3">
      <rect id="Rectangle_377631" data-name="Rectangle 377631" width="325" height="288" transform="translate(1095 1248)" fill="none"/>
    </clipPath>
    <clipPath id="clip-path-4">
      <rect id="Rectangle_377630" data-name="Rectangle 377630" width="296.941" height="223.617" fill="none"/>
    </clipPath>
    <clipPath id="clip-path-5">
      <rect id="Rectangle_377626" data-name="Rectangle 377626" width="237.646" height="516.863" fill="none"/>
    </clipPath>
  </defs>
  <g id="Group_1072021" data-name="Group 1072021" transform="translate(-1020 -1017)">
    <g id="Mask_Group_87" data-name="Mask Group 87" clip-path="url(#clip-path)">
      <g id="Group_1072014" data-name="Group 1072014" transform="translate(1039 1017.295)">
        <g id="Group_1072013" data-name="Group 1072013" transform="translate(0 0.002)" clip-path="url(#clip-path-2)">
          <path id="Path_838415" data-name="Path 838415" d="M577.188,377.923c-6.7,43.93-33.083,91.133-72.9,110.824q-.831.41-1.679.81c-28.96,13.644-75.009,18.506-114.661,17.432a308.3,308.3,0,0,1-41.931-3.768c-15-2.532-29.51-1.959-44.3-.045-6.227.8-12.505,1.848-18.89,3-34.487,6.216-72.088,15.545-121.859,7.251q-7.489-1.246-15.359-3.048c-19.758-4.548-41.383-11.907-65.362-23.195-33.165-15.611-63.707-40.4-75.831-75.02C1.316,403.3-.654,393.885.2,384.535,1.894,366.026,14.12,350.5,24.617,335.16a330.211,330.211,0,0,0,33.126-61.509c4.865-11.912,9.1-24.53,8.2-37.369-1.957-28.049-26.872-48.385-38.875-73.806A84.249,84.249,0,0,1,86.473,43.928c54.306-11.009,111.617,32.042,163.484,12.533C276.87,46.34,304.992,26.883,331.18,15,443.127-35.8,535.037,52.912,530.6,124.855c-3.67,59.523-22.633,61.215-49.226,109.528a36.2,36.2,0,0,0-4.29,21.668c1.9,15.215,16.517,25.6,30.935,30.8s30.188,7.383,43.02,15.77c23.507,15.368,30.382,47.527,26.148,75.3" transform="translate(0.001 -0.002)" fill="#faffd7"/>
        </g>
      </g>
    </g>
    <g id="Group_1072019" data-name="Group 1072019" transform="translate(1292.181 1156.791)">
      <g id="Group_151704" data-name="Group 151704" transform="translate(0 9.699)">
        <path id="Path_212295" data-name="Path 212295" d="M-11425.02-11468v19.4" transform="translate(11434.719 11467.999)" fill="none" stroke="#0a5e6b" stroke-width="5"/>
        <path id="Path_212296" data-name="Path 212296" d="M0,0V19.4" transform="translate(19.398 9.699) rotate(90)" fill="none" stroke="#0a5e6b" stroke-width="5"/>
      </g>
      <g id="Group_151705" data-name="Group 151705" transform="translate(25.218 0)">
        <path id="Path_212295-2" data-name="Path 212295" d="M-11425.02-11468v19.4" transform="translate(11434.719 11467.999)" fill="none" stroke="#0a5e6b" stroke-width="5"/>
        <path id="Path_212296-2" data-name="Path 212296" d="M0,0V19.4" transform="translate(19.398 9.699) rotate(90)" fill="none" stroke="#0a5e6b" stroke-width="5"/>
      </g>
      <g id="Group_151706" data-name="Group 151706" transform="translate(29.421 29.097)">
        <path id="Path_212295-3" data-name="Path 212295" d="M-11425.02-11468v19.4" transform="translate(11434.719 11467.999)" fill="none" stroke="#0a5e6b" stroke-width="5"/>
        <path id="Path_212296-3" data-name="Path 212296" d="M0,0V19.4" transform="translate(19.398 9.699) rotate(90)" fill="none" stroke="#0a5e6b" stroke-width="5"/>
      </g>
    </g>
    <g id="Group_1072020" data-name="Group 1072020" transform="translate(1335 1107.35)">
      <g id="Group_151688" data-name="Group 151688" transform="translate(0 7.064)">
        <path id="Path_212295-4" data-name="Path 212295" d="M-11425.02-11468v14.128" transform="translate(11432.083 11467.998)" fill="none" stroke="#0a5e6b" stroke-width="4"/>
        <path id="Path_212296-4" data-name="Path 212296" d="M0,0V14.127" transform="translate(14.127 7.064) rotate(90)" fill="none" stroke="#0a5e6b" stroke-width="4"/>
      </g>
      <g id="Group_151689" data-name="Group 151689" transform="translate(18.366 0)">
        <path id="Path_212295-5" data-name="Path 212295" d="M-11425.02-11468v14.128" transform="translate(11432.083 11467.998)" fill="none" stroke="#0a5e6b" stroke-width="4"/>
        <path id="Path_212296-5" data-name="Path 212296" d="M0,0V14.127" transform="translate(14.127 7.064) rotate(90)" fill="none" stroke="#0a5e6b" stroke-width="4"/>
      </g>
      <g id="Group_151690" data-name="Group 151690" transform="translate(21.427 21.192)">
        <path id="Path_212295-6" data-name="Path 212295" d="M-11425.02-11468v14.128" transform="translate(11432.083 11467.998)" fill="none" stroke="#0a5e6b" stroke-width="4"/>
        <path id="Path_212296-6" data-name="Path 212296" d="M0,0V14.127" transform="translate(14.127 7.064) rotate(90)" fill="none" stroke="#0a5e6b" stroke-width="4"/>
      </g>
    </g>
    <g id="Mask_Group_88" data-name="Mask Group 88" clip-path="url(#clip-path-3)">
      <g id="Group_1072017" data-name="Group 1072017" transform="matrix(0.891, -0.454, 0.454, 0.891, 1105, 1368.782)">
        <g id="Group_1072015" data-name="Group 1072015" clip-path="url(#clip-path-4)">
          <path id="Path_838416" data-name="Path 838416" d="M105.865,223.617c-39.3-1.332-81.847-16.066-99.729-49.784-5.224-9.85-8.029-21.476-4.688-32.086s14.087-19.466,25.516-18.37c9.891.948,18.785,8.736,28.56,6.949,6.829-1.249,11.954-7.084,14.289-13.4s2.418-13.155,2.756-19.847A240.594,240.594,0,0,1,75.306,71.09c1.636-10.188,4.342-21,12.3-27.905s22.705-7.163,27.768,1.9c2.393,4.282,2.122,9.448,3.326,14.174s5.189,9.671,10.182,8.918a11.024,11.024,0,0,0,5.169-2.671c11.638-9.55,12.476-15.277,23.786-30.791,4.36-5.981,13.817-14.462,20.552-17.747C208.77,2.144,245.249-6.538,276.6,6.08c6.13,2.468,12.108,5.863,15.947,11.087,7.284,9.914,4.883,24.24-2.547,34.1s-18.843,16.129-30.185,21.5-23.179,10.265-32.634,18.353a57.8,57.8,0,0,0,28.815,6.262c5.16-.23,10.748-1.058,15.147,1.539,7.006,4.136,6.32,15.029.551,20.7s-14.515,7.3-22.717,7.936c-21.921,1.71-46-1.031-63.982,11.221-2.415,1.645-4.85,3.922-4.818,6.769.022,1.954,1.232,3.707,2.6,5.149,6.8,7.192,17.517,9.207,26.53,13.594a15.01,15.01,0,0,1,5.545,4.035c5.483,7.177-2.857,16.6-10.62,21.493-29.273,18.434-59.617,32.372-98.358,33.8" transform="translate(0 0)" fill="#1fd27a"/>
          <path id="Path_838417" data-name="Path 838417" d="M309.341,102.753a336.041,336.041,0,0,0-93.592,44.711,347.537,347.537,0,0,0-75.389,70,335.952,335.952,0,0,0-32.088,48.252c-.927,1.692-3.516.181-2.589-1.513a343.68,343.68,0,0,1,62.9-82.166,348.224,348.224,0,0,1,84.79-60.266,335.088,335.088,0,0,1,55.167-21.906c1.853-.551,2.645,2.341.8,2.891" transform="translate(-55.999 -59.542)" fill="#1bb262"/>
        </g>
      </g>
    </g>
    <g id="Group_1072012" data-name="Group 1072012" transform="translate(1020 1017.142)">
      <g id="Group_1072011" data-name="Group 1072011" transform="translate(0 -0.005)" clip-path="url(#clip-path-5)">
        <path id="Path_838353" data-name="Path 838353" d="M230.057,156.76c-9.358-24.564-17.466-41.625-23.537-46.724-4.89-4.107-13.612-6.433-16.984-7.215,4.616-15.949-5.005-56.689-6.675-67.545-1.8-11.674-8.307-26.716-21.645-32.329S117.979.7,111.274,4.968s-6.395,12.848-6.395,12.848C96.494,28.868,94.855,47.175,96.651,54.9c1.368,5.885,6.35,8.155,8.651,8.905.373,1.446.772,2.873,1.187,4.272l0,0c.012.04.025.077.037.117.3,1,.6,1.977.917,2.931.012.04.026.077.039.116.286.864.579,1.7.877,2.519.084.232.169.456.254.684q.361.965.732,1.873c.09.221.178.444.269.659.328.779.659,1.534.993,2.235A11.878,11.878,0,0,0,112.577,82a26.489,26.489,0,0,0,2.887,2.88c.165,7.023.031,16.822-.064,22.1a36.075,36.075,0,0,0-5.728,5.53c-6.635,8.193-9.673,12.588-14.144,18.629-6.088,8.226-11.252,19.535-14.593,20.775-1.772.658-7.706.972-13.039,1.144V117.568a3.931,3.931,0,0,0-3.93-3.932H13.791a3.933,3.933,0,0,0-3.932,3.932v9.47c-3.5.945-7.827,2.976-8.35,5.544,0,0-6.765,15.21,8.35,23.888V186.25a3.935,3.935,0,0,0,3.932,3.934H63.967a3.931,3.931,0,0,0,3.925-3.884c5.511,1.41,10.613,2.357,13.677,2.315,7.952-.109,17.382-11.3,21.417-15.045,2.813-2.612,4.972-5.877,8.012-9.135,3.351,10.147,1.932,24.731.986,40.8,0,0-5.453,24.659-9,47.6l1.4-.2c-.037.243-.072.5-.108.745-.043.291-.085.584-.127.88-.1.692-.2,1.4-.293,2.12-.039.289-.077.573-.115.866q-.182,1.4-.353,2.871c-.008.066-.016.127-.024.192h0a254.594,254.594,0,0,0-1.3,41.151c1.433,30.245,5.079,58.662,6.051,76.1h1.4c.018.183.036.37.054.549q.108,1.066.213,2.023c.106.955.21,1.823.313,2.592q.077.577.153,1.076a18.617,18.617,0,0,0,.442,2.24v0c.118.4.237.848.357,1.322,4.828,19.145,10.907,97.862,10.907,97.862s-7.906,11.43-13.834,16.171h0a114.738,114.738,0,0,1-12.842,8.657s-4.743.887-2.076,4.45,28.458,4.149,40.014-5.933l.6,7.663s4.029.64,4.088-1.134c.013-.378.111-1.242.235-2.436,5.345,2.877,28.364,2.73,39.1-6.638l.6,7.662s4.029.64,4.089-1.133c.049-1.459,1.34-9.785.634-18.639h0s-.626-6.826-.737-11.244c-.142-3.447,7.411-40.24,8.333-51.656a134.391,134.391,0,0,0-.361-21.6c0-.021,0-.042-.006-.063q-.084-.97-.176-1.917c-.019-.2-.039-.394-.059-.592q-.068-.688-.139-1.364c-.023-.214-.045-.426-.068-.638q-.071-.655-.143-1.292c-.022-.2-.044-.4-.067-.591-.068-.583-.136-1.159-.205-1.72-.006-.045-.011-.088-.017-.133q-.1-.812-.2-1.587c-.025-.188-.049-.37-.074-.555-.049-.369-.1-.734-.147-1.089-.025-.186-.051-.368-.076-.55-.048-.344-.1-.679-.143-1.007-.024-.168-.048-.337-.072-.5-.065-.444-.129-.877-.191-1.288l-.024-.154q-.091-.6-.178-1.152l-.063-.4c-.043-.268-.085-.53-.125-.777-.02-.124-.039-.243-.059-.362-.037-.225-.072-.438-.107-.643-.019-.113-.038-.228-.056-.335-.04-.237-.077-.457-.114-.663l-.048-.278c-.032-.18-.062-.353-.089-.5-.014-.082-.026-.146-.039-.218-.018-.1-.035-.2-.051-.28s-.023-.13-.034-.188l-.025-.135c-.022-.117-.037-.2-.037-.2,0-.164.02-.551.057-1.133.012-.194.027-.41.043-.646.039-.568.089-1.255.148-2.048q.03-.4.062-.828c.044-.575.091-1.195.142-1.856s.106-1.363.165-2.1c.052-.662.107-1.358.165-2.077h6.447c2.187-32.375,7.032-73.486,7.718-94.284h0c0-.071,0-.137.006-.208.008-.254.015-.5.022-.749q.019-.679.031-1.325c0-.194.008-.393.011-.582.008-.568.011-1.11.011-1.638,0-.18,0-.355,0-.53,0-.468-.009-.922-.019-1.355,0-.081,0-.167,0-.247-.014-.5-.035-.963-.059-1.41-.006-.115-.013-.228-.02-.339-.028-.446-.059-.875-.1-1.264-.658-6.467-1.566-12.383-2.555-17.615l2.555.346c-1.136-13.166-4.162-29.687-6.487-45.177,18.455,1.855,39.959,2.034,41.7-6.868,3.312-16.891-6.93-47.557-6.93-47.557M153.79,377.588c.079.716.158,1.384.235,2a29.624,29.624,0,0,0,.672,3.912v0c.106.358.213.758.32,1.176.025.1.05.195.075.3.105.424.211.869.317,1.348.016.07.031.146.047.217.1.439.193.9.29,1.383.024.118.047.233.071.354q.16.811.322,1.692c.022.123.045.251.067.376q.146.806.292,1.666c.018.108.037.213.055.323.109.649.218,1.323.328,2.015.026.162.052.327.077.492.1.659.206,1.332.31,2.026l.029.191c.11.741.219,1.505.33,2.281,4.171,29.447,8.334,83.348,8.334,83.348s-7.906,11.431-13.834,16.173a114.72,114.72,0,0,1-12.842,8.656,5.7,5.7,0,0,0-.741.21,79.718,79.718,0,0,0-.023-11.257h0s-.625-6.821-.737-11.24c-.145-3.438,7.411-40.242,8.333-51.66,1.072-13.27-1.083-29.737-2.354-37.819l-.036-.226-.128-.8-.047-.288c-.036-.218-.071-.431-.1-.631-.02-.118-.038-.228-.057-.34-.029-.176-.058-.344-.085-.5l-.05-.292-.069-.394c-.018-.1-.034-.193-.05-.283l-.05-.282c-.014-.083-.029-.164-.042-.236l-.037-.2c-.011-.061-.022-.122-.032-.171l-.014-.076c-.024-.132-.041-.221-.041-.221,0-.175.023-.6.065-1.251.032-.486.074-1.1.127-1.818.14-1.923.351-4.632.61-7.868.059-.739.121-1.508.185-2.3h9.877c0,.008,0,.017,0,.026m38.751-191.436V175.786c.031-.35.057-.708.095-1.047.54-4.858,1.107-9.572,1.668-14.107,3.179,6.078,7.222,13.708,12.216,24.477Z" transform="translate(0 0.005)" fill="#f8ab82"/>
        <path id="Path_838354" data-name="Path 838354" d="M500.855,969.829c0-.469-.009-.922-.019-1.355,0-.081,0-.168,0-.247-.014-.5-.034-.963-.059-1.41-.006-.115-.013-.227-.02-.339-.028-.446-.059-.875-.1-1.265-.658-6.466-1.566-12.383-2.555-17.615l-46.017-6.232-.093-14.336H437.6L435,939.585l-31.734,4.632c-.038.25-.076.491-.114.746-.043.291-.085.584-.128.88-.1.692-.2,1.4-.293,2.119-.039.289-.077.573-.115.866q-.182,1.4-.353,2.871c-.008.065-.016.126-.024.192h0a254.594,254.594,0,0,0-1.3,41.151c1.433,30.245,5.079,58.661,6.051,76.1h86.065c2.187-32.375,7.032-73.486,7.718-94.284h0c0-.071,0-.137.006-.208.008-.254.015-.5.022-.749q.019-.679.031-1.325c0-.193.008-.393.011-.582.008-.568.011-1.11.011-1.638,0-.18,0-.355,0-.53" transform="translate(-298.884 -691.577)" fill="#1c182a"/>
        <path id="Path_838355" data-name="Path 838355" d="M679.761,437.787c-9.358-24.564-17.466-41.625-23.536-46.724-4.89-4.107-13.612-6.433-16.984-7.215l-.519-.118L614.237,376.7l.019.113s-.129.563-.412,1.434c-2.728,10.2-5.058,34.839-6.864,60.545h32.284a2.981,2.981,0,0,1,2.98,2.98v15.042c.031-.35.057-.708.095-1.047.54-4.858,1.108-9.572,1.668-14.107,3.179,6.077,7.222,13.708,12.216,24.476l-13.979,1.044-26.4,1.971s-.01.168-.024.466c-.111,2.308-.5,12.659,1.171,16.986a3.366,3.366,0,0,0,1.189,1.723s10.927,2.142,24.059,3.6v6.572a2.981,2.981,0,0,1-2.98,2.981H603.446c-.418,9.223-.638,15-.638,15l.093,14.336,46.017,6.232,2.555.346c-1.136-13.166-4.162-29.687-6.487-45.177,18.455,1.855,39.959,2.034,41.7-6.868,3.312-16.891-6.93-47.557-6.93-47.557" transform="translate(-449.704 -281.021)" fill="#51a65f"/>
        <path id="Path_838356" data-name="Path 838356" d="M638.093,439.671l-4.376-3.713,5.981-5.108.641-41.215a.509.509,0,1,0-1.018-.016h0l-.634,40.755-6.541,5.586,4.773,4.05-2.521,8.045h1.067Z" transform="translate(-471.59 -290.286)" fill="#226d38"/>
        <path id="Path_838357" data-name="Path 838357" d="M740.812,471.422c-2.08-5.221-6.23-16.658-6.22-23.912a14.811,14.811,0,0,1,.135-2.08h0a69.106,69.106,0,0,1,4.445-16.106c.826-2.024,1.594-3.647,2.155-4.761.281-.557.509-.988.667-1.278s.243-.435.243-.436a.5.5,0,0,0-.869-.506h0a70.125,70.125,0,0,0-7.637,22.945,15.815,15.815,0,0,0-.145,2.222c0,5.063,1.874,11.808,3.733,17.326s3.719,9.778,3.723,9.787a.5.5,0,0,0,.922-.4s-.46-1.055-1.152-2.8" transform="translate(-547.267 -314.887)" fill="#226d38"/>
        <path id="Path_838358" data-name="Path 838358" d="M824.186,723.522a.5.5,0,0,0,.421.573c10.849,1.665,16.611,5.255,19.669,8.377a14.263,14.263,0,0,1,2.861,4.065,8.976,8.976,0,0,1,.461,1.242c.041.145.067.256.082.328l.015.079,0,.018a.5.5,0,0,0,.994-.148h0c-.01-.075-.463-2.983-3.7-6.286s-9.228-6.981-20.235-8.668a.5.5,0,0,0-.573.421" transform="translate(-614.851 -539.439)" fill="#226d38"/>
        <path id="Path_838359" data-name="Path 838359" d="M799.062,538.811a49.172,49.172,0,0,0,2.506-8.852c2.35-11.093,4.157-26.8,4.158-26.808a.5.5,0,1,0-1-.115h0s-.2,1.741-.555,4.474c-.531,4.1-1.409,10.428-2.471,16.436s-2.32,11.709-3.558,14.453a.5.5,0,0,0,.917.412" transform="translate(-595.395 -374.939)" fill="#226d38"/>
        <path id="Path_838360" data-name="Path 838360" d="M803.41,584.365a.5.5,0,1,0,.822.58h0s2.987-4.231,6.388-9.539,7.217-11.689,8.9-16.07a.5.5,0,1,0-.938-.361c-1.624,4.23-5.426,10.6-8.812,15.888-1.694,2.644-3.285,5.021-4.453,6.736s-1.908,2.764-1.91,2.766" transform="translate(-599.287 -416.761)" fill="#226d38"/>
        <path id="Path_838361" data-name="Path 838361" d="M669.629,753.393c-.019-.885-.021-1.419-.021-1.42a.5.5,0,0,0-1.005,0c0,.017.028,8.657,1.074,13.718a.5.5,0,0,0,.985-.2,61.868,61.868,0,0,1-.909-8.594c-.068-1.386-.1-2.618-.124-3.5" transform="translate(-498.788 -560.608)" fill="#226d38"/>
        <path id="Path_838362" data-name="Path 838362" d="M536.032,467.121a6.731,6.731,0,0,1,2.886-.768V438.325a2.98,2.98,0,0,1,2.981-2.979h6.757c1.806-25.706,4.136-50.343,6.864-60.546-1.1,3.39-4.669,11.685-13.29,11.878-11.071.247-12.041-14.6-12.041-14.6s-6.277,33.093-5.495,49.386,5.4,91.563,5.4,91.563h14.389s.22-5.777.638-15H541.9a2.981,2.981,0,0,1-2.981-2.981v-8.84c-.133-.015-.275-.026-.4-.044-2.949-.43-2.65-2.65-2.484-3.974a6.385,6.385,0,0,1-.59-2.087,5.839,5.839,0,0,1,.005-1.323q.006-1.332.02-2.681a4.949,4.949,0,0,1-.072-4.274s-1.1-2.675.229-4.275a2.435,2.435,0,0,1,.408-.43" transform="translate(-391.38 -277.576)" fill="#a9c8eb"/>
        <path id="Path_838363" data-name="Path 838363" d="M323.58,378.992h0a52.575,52.575,0,0,0-8.763,5.566,36.085,36.085,0,0,0-5.728,5.529c-6.635,8.194-9.673,12.588-14.144,18.629-6.088,8.226-11.252,19.534-14.593,20.775-1.772.658-7.706.972-13.039,1.144v33.2c0,.017,0,.033,0,.05,5.511,1.41,10.613,2.357,13.677,2.315,7.952-.109,17.382-11.3,21.417-15.045,2.813-2.612,4.972-5.877,8.012-9.135,3.351,10.147,1.932,24.731.986,40.8,0,0-5.453,24.66-9,47.6l1.4-.2h.006l31.734-4.632,2.593-12.554s-4.617-75.27-5.4-91.563,5.495-49.386,5.495-49.386a88.071,88.071,0,0,0-14.647,6.912" transform="translate(-199.417 -277.576)" fill="#51a65f"/>
        <path id="Path_838364" data-name="Path 838364" d="M305.9,451.32c3.328-15.232,10.472-34.616,10.584-34.92l-.017-.037c-.545.39-1.094.789-1.654,1.23a36.073,36.073,0,0,0-5.728,5.53c-6.635,8.193-9.673,12.588-14.144,18.629-6.088,8.226-11.252,19.534-14.593,20.775-1.772.658-7.706.972-13.039,1.145v33.2c0,.018,0,.033,0,.051,5.511,1.41,10.613,2.357,13.677,2.315,7.952-.109,17.382-11.3,21.417-15.045,2.813-2.613,4.972-5.877,8.012-9.135a25.953,25.953,0,0,0-1.05-2.732c-4.43-9.6-5.051-13.731-3.462-21" transform="translate(-199.416 -310.613)" fill="#51a65f"/>
        <path id="Path_838365" data-name="Path 838365" d="M300.5,606.194c1.158,1.742,2.922,4.5,4.5,7.38a30.965,30.965,0,0,1,3.352,8.063,28.969,28.969,0,0,1,.49,5.237,23.184,23.184,0,0,1-.244,3.447c-.06.4-.121.708-.165.914l-.053.23-.018.069a.509.509,0,1,0,.981.272h0a20.134,20.134,0,0,0,.517-4.932,29.943,29.943,0,0,0-.507-5.421c-.6-3.184-2.916-7.562-5.087-11.207-.868-1.454-1.706-2.772-2.408-3.846a53.413,53.413,0,0,1,5.273,4.736,18.152,18.152,0,0,1,2.185,3.373c1.187,2.2,2.415,4.916,3.343,7.075.464,1.08.854,2.021,1.127,2.692s.429,1.069.43,1.07a.509.509,0,1,0,.948-.372s-1.127-2.873-2.592-6.113c-.733-1.621-1.551-3.334-2.359-4.834a18.938,18.938,0,0,0-2.333-3.58,72.525,72.525,0,0,0-7.928-6.822l-2.565-1.907,1.846,2.609s.5.707,1.272,1.869" transform="translate(-221.854 -448.888)" fill="#226d38"/>
        <path id="Path_838366" data-name="Path 838366" d="M350.333,589.328a.509.509,0,0,0,.145.705l18.185,11.994a.509.509,0,0,0,.561-.85l-18.185-11.994a.509.509,0,0,0-.705.145" transform="translate(-261.291 -439.475)" fill="#226d38"/>
        <path id="Path_838367" data-name="Path 838367" d="M344.389,573.458h0c.006,0,2.834,1.074,6.136,2.361s7.076,2.789,8.924,3.631a.509.509,0,1,0,.422-.927c-3.785-1.724-15.115-6.015-15.122-6.018a.509.509,0,1,0-.361.952" transform="translate(-256.674 -427.072)" fill="#226d38"/>
        <path id="Path_838368" data-name="Path 838368" d="M490.244,422.305l4.575,5.591-2.306,7.1,4.326,11.595a.509.509,0,0,0,.954-.356l-4.2-11.262,2.368-7.288-4.591-5.611,10.972-38.82a.509.509,0,1,0-.979-.277h0Z" transform="translate(-365.729 -285.427)" fill="#226d38"/>
        <path id="Path_838369" data-name="Path 838369" d="M464.828,35.276c-1.8-11.674-8.307-26.716-21.645-32.329S399.946.7,393.24,4.968s-6.395,12.848-6.395,12.848c-8.385,11.052-10.024,29.359-8.228,37.085,1.368,5.885,6.35,8.155,8.65,8.906a99.186,99.186,0,0,1-3.335-20.964,28.434,28.434,0,0,1,1.033-8.352c.143-.214,4.8-7.123,11.212-7.565,0,0,11.177,23.325,39.463,17.555,5.807-1.185,6.278,10.6,10.923,10.42.153-.006.29-.022.44-.03,2.761-.146,4.968-.65,6.327-1.736a3.868,3.868,0,0,0,1.471-2.559,8.655,8.655,0,0,1,.441.853c3.557,8.2-2.876,14.79-7.634,13.843a2.05,2.05,0,0,1-.791-.349,65.769,65.769,0,0,1-.805,7.051,14.36,14.36,0,0,1-1.05,2.163,107.553,107.553,0,0,0,.044,11.614c.258,2.867.742,5.581,1.491,9.92l24.484,7.031.519.118c4.617-15.949-5-56.688-6.675-67.545" transform="translate(-281.967 0.005)" fill="#9b5832"/>
        <path id="Path_838370" data-name="Path 838370" d="M475.107,342.306c-10.277-.97-16.8-4.749-20.685-8.105.165,7.023.031,16.822-.064,22.1a52.578,52.578,0,0,1,8.763-5.566h0a88.084,88.084,0,0,1,14.647-6.912c.081-.718.153-1.482.222-2.262-.5.189-.994.377-1.51.561a3.962,3.962,0,0,1-1.373.186" transform="translate(-338.958 -249.318)" fill="#9b5832"/>
        <path id="Path_838371" data-name="Path 838371" d="M444.582,197.677a1.122,1.122,0,1,0,.822-2.072,8.07,8.07,0,0,0-6.632,1.272,10.054,10.054,0,0,0-1.622,1.427l-.031.416a.328.328,0,0,0,.457.078,7,7,0,0,1,7.006-1.121" transform="translate(-326.098 -145.743)" fill="#9b5832"/>
        <path id="Path_838372" data-name="Path 838372" d="M542.974,186.474a9.345,9.345,0,0,0-10.21.051,1.117,1.117,0,1,0,1.339,1.786,7.648,7.648,0,0,1,8.276-.786.6.6,0,0,0,.6-1.051" transform="translate(-397.075 -137.998)" fill="#9b5832"/>
        <path id="Path_838373" data-name="Path 838373" d="M445.4,195.6a8.073,8.073,0,0,0-6.632,1.272,10.071,10.071,0,0,0-1.622,1.427l-.031.415a.328.328,0,0,0,.457.079,7,7,0,0,1,7.006-1.121,1.122,1.122,0,1,0,.822-2.072" transform="translate(-326.098 -145.742)" fill="#9b5832"/>
        <path id="Path_838374" data-name="Path 838374" d="M534.1,188.312a7.649,7.649,0,0,1,8.276-.787.6.6,0,0,0,.6-1.051,9.345,9.345,0,0,0-10.21.051,1.117,1.117,0,1,0,1.338,1.787" transform="translate(-397.075 -137.998)" fill="#9b5832"/>
        <path id="Path_838375" data-name="Path 838375" d="M490.116,86.013a48.757,48.757,0,0,0-6.869.532,25.739,25.739,0,0,1-3.64.256c-10.029.01-19.715-5.7-26.871-11.462a87.831,87.831,0,0,1-8.569-7.921c-1.024-1.08-1.823-1.979-2.365-2.607-.271-.314-.478-.56-.616-.727s-.206-.252-.206-.252a.665.665,0,1,0-1.039.831h0A85.217,85.217,0,0,0,451.9,76.376c7.275,5.845,17.161,11.746,27.7,11.756a27.086,27.086,0,0,0,3.828-.269,47.438,47.438,0,0,1,6.681-.519c6.928.007,10.33,1.993,12.059,3.993a7.339,7.339,0,0,1,1.831,4.591v.086a.665.665,0,0,0,1.329.058l0-.144a8.655,8.655,0,0,0-2.153-5.459c-2.025-2.357-5.9-4.462-13.067-4.455" transform="translate(-328.094 -47.433)" fill="#7b4223"/>
        <path id="Path_838376" data-name="Path 838376" d="M492.833,66.268c-14.9,0-27.894-4.99-37.16-9.992A92.135,92.135,0,0,1,444.8,49.4c-1.268-.937-2.246-1.716-2.906-2.26-.33-.272-.58-.485-.746-.629s-.246-.216-.247-.216a.665.665,0,1,0-.892.986c.057.039,22.409,20.3,52.818,20.315a66.938,66.938,0,0,0,11.957-1.071.665.665,0,1,0-.237-1.309,65.646,65.646,0,0,1-11.72,1.049" transform="translate(-328.094 -34.409)" fill="#7b4223"/>
        <path id="Path_838377" data-name="Path 838377" d="M451.721,22.246a109.73,109.73,0,0,0,14.731,8.476c8.794,4.231,20.46,8.48,32.029,8.484a39.492,39.492,0,0,0,11.919-1.74A.665.665,0,0,0,510,36.2a38.159,38.159,0,0,1-11.518,1.678c-11.242,0-22.762-4.165-31.452-8.352a118.1,118.1,0,0,1-10.535-5.755c-1.275-.784-2.277-1.438-2.96-1.893-.342-.228-.6-.407-.778-.529s-.262-.183-.262-.183a.665.665,0,1,0-.773,1.082Z" transform="translate(-336.783 -15.695)" fill="#7b4223"/>
        <path id="Path_838378" data-name="Path 838378" d="M509.516,11.905c.057.044,11.835,11.713,29.069,11.731a38.329,38.329,0,0,0,10.447-1.461.665.665,0,0,0-.361-1.28,36.986,36.986,0,0,1-10.086,1.411,41.123,41.123,0,0,1-20.315-5.681,46.435,46.435,0,0,1-5.783-3.91c-.669-.532-1.182-.975-1.525-1.282-.172-.154-.3-.274-.387-.355l-.124-.119a.665.665,0,1,0-.935.947Z" transform="translate(-379.959 -8.031)" fill="#7b4223"/>
        <path id="Path_838379" data-name="Path 838379" d="M707.575,237.242a29.973,29.973,0,0,1-.542,6.8.665.665,0,1,0,1.285.346,30.918,30.918,0,0,0,.588-7.151c0-14.05-3.489-40.226-3.49-40.241a.665.665,0,1,0-1.318.175h0s.217,1.633.544,4.3c.979,8.007,2.936,25.362,2.935,35.762" transform="translate(-525.262 -146.533)" fill="#7b4223"/>
        <path id="Path_838380" data-name="Path 838380" d="M668.2,268.848a.665.665,0,1,0-1.327.092h0s.105,1.511.263,3.82c.237,3.463.593,8.721.889,13.364s.533,8.692.532,9.644v.11a.665.665,0,0,0,1.33.03l0-.14c0-1.412-.423-8.1-.845-14.49s-.843-12.429-.843-12.43" transform="translate(-497.495 -200.102)" fill="#7b4223"/>
        <path id="Path_838381" data-name="Path 838381" d="M684.252,258.213a.665.665,0,0,0-.579.741s.148,1.207.37,3.143c.666,5.8,2,18.2,2,24.081a18.941,18.941,0,0,1-.1,2.157.665.665,0,1,0,1.32.162,20.13,20.13,0,0,0,.106-2.319c0-8.042-2.376-27.37-2.377-27.387a.665.665,0,0,0-.741-.579" transform="translate(-510.026 -192.626)" fill="#7b4223"/>
        <path id="Path_838382" data-name="Path 838382" d="M468.443,362.486c-.288-1.4-.951-4.946-1.616-10.815a.665.665,0,0,0-1.322.15h0A109.518,109.518,0,0,0,467.3,363.48a.665.665,0,1,0,1.294-.309s-.053-.22-.148-.685" transform="translate(-347.271 -261.911)" fill="#7b4223"/>
        <path id="Path_838383" data-name="Path 838383" d="M244.1,520.09c0-.017.005-.033.005-.05V451.357a3.931,3.931,0,0,0-3.93-3.932H236.2a3.934,3.934,0,0,1,3.931,3.932V520.04a3.936,3.936,0,0,1-3.931,3.934h3.975a3.931,3.931,0,0,0,3.925-3.884" transform="translate(-176.211 -333.784)" fill="#252134"/>
        <path id="Path_838384" data-name="Path 838384" d="M92.881,520.04V451.357a3.934,3.934,0,0,0-3.931-3.932h-46.2a3.933,3.933,0,0,0-3.932,3.932v9.469a14.048,14.048,0,0,1,3.576-.579c2.111.051,1.659,2.645,1.28,4a.729.729,0,0,1,.425.423.715.715,0,0,1,.022.388c3.393.235,1.091,4.263-.012,5.922a.721.721,0,0,1,.564,1.066l.983.334c2.084.553-.111,3.461-1.147,4.681a.719.719,0,0,1,.209.287.731.731,0,0,1-.011.528l1.968.779c1.632,3.479-7.491,11.824-7.491,11.824-.128-.071-.241-.145-.365-.217V520.04a3.936,3.936,0,0,0,3.932,3.934h46.2a3.936,3.936,0,0,0,3.931-3.934" transform="translate(-28.958 -333.784)" fill="#34273b"/>
        <path id="Path_838385" data-name="Path 838385" d="M34.146,563.39l-7.746,2.9a.738.738,0,0,0,.517,1.382l7.746-2.9a.754.754,0,0,0,.433-.95.721.721,0,0,0-.209-.287.731.731,0,0,0-.741-.146" transform="translate(-19.337 -420.263)" fill="#d06f54"/>
        <path id="Path_838386" data-name="Path 838386" d="M34.146,540.169l-7.746,2.9a.738.738,0,1,0,.517,1.382l7.746-2.9a.732.732,0,0,0-.176-1.416.723.723,0,0,0-.341.034" transform="translate(-19.337 -402.943)" fill="#d06f54"/>
        <path id="Path_838387" data-name="Path 838387" d="M31.712,513.474l-7.745,2.892a.738.738,0,0,0,.516,1.382l7.745-2.892a.727.727,0,0,0,.455-.561.717.717,0,0,0-.022-.388.755.755,0,0,0-.949-.433" transform="translate(-17.521 -383.025)" fill="#d06f54"/>
        <path id="Path_838388" data-name="Path 838388" d="M450.093,1500.732q7.671,1.949,15.31,4.019h0l-.036-.226c-.044-.275-.087-.545-.128-.8l-.047-.288c-.036-.218-.071-.431-.1-.631-.02-.118-.038-.228-.057-.34-.029-.175-.058-.345-.085-.5l-.05-.292q-.036-.208-.069-.394l-.05-.283c-.018-.1-.035-.193-.05-.282l-.042-.236-.037-.2-.031-.172-.014-.076-.041-.221c0-.175.023-.6.065-1.251.031-.486.074-1.1.127-1.818.14-1.923.351-4.632.61-7.868.059-.739.121-1.508.185-2.3H431.141c.018.183.036.37.054.549q.107,1.066.213,2.023c.106.955.21,1.824.313,2.592a25.682,25.682,0,0,0,.595,3.316v0c.118.4.237.848.357,1.322.01.038.019.067.028.1q8.715,2.052,17.393,4.256" transform="translate(-321.638 -1109)" fill="#e7885d"/>
        <path id="Path_838389" data-name="Path 838389" d="M605.5,1486.593a43.777,43.777,0,0,0,.908,5.909v0c.106.358.213.757.32,1.176.025.1.05.195.075.3.1.424.211.869.317,1.348.016.07.031.146.047.217.1.439.193.9.29,1.383.024.118.048.233.071.354q.16.81.321,1.692c.023.123.045.251.068.375q.146.807.291,1.666c.018.109.037.213.055.324.109.649.218,1.323.328,2.014l.077.492c.1.66.207,1.332.31,2.026.01.065.019.126.029.191.11.74.22,1.505.33,2.281.014.1.028.192.042.291q16.137,4.624,32.109,9.8l-.006-.063q-.085-.97-.176-1.917c-.019-.2-.039-.394-.059-.592q-.068-.689-.139-1.365c-.023-.214-.045-.426-.068-.638q-.071-.655-.143-1.293c-.022-.2-.044-.4-.067-.591-.068-.583-.136-1.159-.206-1.719-.006-.045-.011-.088-.017-.133q-.1-.812-.2-1.587c-.025-.188-.049-.37-.074-.555-.049-.369-.1-.734-.147-1.089-.026-.186-.051-.368-.076-.55-.048-.344-.1-.679-.143-1.007-.024-.167-.048-.337-.072-.5-.065-.444-.129-.876-.191-1.288-.008-.052-.015-.1-.023-.154q-.092-.6-.178-1.152c-.022-.137-.042-.265-.063-.4-.042-.268-.085-.53-.125-.777-.02-.124-.039-.243-.059-.362-.037-.224-.072-.438-.106-.643l-.056-.335c-.04-.238-.078-.458-.113-.663-.017-.1-.033-.188-.048-.278-.031-.18-.062-.353-.088-.5-.015-.082-.026-.146-.039-.218-.018-.1-.036-.2-.051-.28l-.034-.187-.025-.135-.037-.2c0-.219.035-.833.1-1.779.039-.568.089-1.255.148-2.048q.03-.4.062-.828c.043-.575.091-1.2.142-1.856s.106-1.363.165-2.1c.052-.662.108-1.359.165-2.077H605.5l0,.026" transform="translate(-451.711 -1109)" fill="#e7885d"/>
        <path id="Path_838390" data-name="Path 838390" d="M423.463,1949.63a114.718,114.718,0,0,1-12.842,8.656,5.746,5.746,0,0,0-.74.21,79.756,79.756,0,0,0-.024-11.256c-2.16.3-9.563,4.706-9.563,4.706-9.777,4.435-20.839.234-20.85.229a114.642,114.642,0,0,1-12.842,8.657s-4.742.887-2.076,4.45,28.458,4.148,40.014-5.933l.6,7.664s4.029.64,4.088-1.134c.013-.378.111-1.242.235-2.436,5.345,2.876,28.364,2.73,39.1-6.638l.6,7.662s4.029.64,4.089-1.133c.049-1.459,1.34-9.784.634-18.639-2.16.3-9.564,4.7-9.564,4.7-9.781,4.438-20.849.232-20.851.231" transform="translate(-271.335 -1450.771)" fill="#141322"/>
        <path id="Path_838391" data-name="Path 838391" d="M407.05,1015.726q.171-1.471.354-2.871c-.121.935-.239,1.89-.354,2.871" transform="translate(-303.665 -755.604)" fill="#1c182a"/>
        <path id="Path_838392" data-name="Path 838392" d="M795.207,1095.54c0,.175,0,.35,0,.53,0-.18,0-.355,0-.53" transform="translate(-593.236 -817.288)" fill="#1c182a"/>
        <path id="Path_838393" data-name="Path 838393" d="M410.658,994.7c-.037.243-.072.5-.108.745.038-.255.076-.5.114-.746Z" transform="translate(-306.276 -742.059)" fill="#1c182a"/>
        <path id="Path_838394" data-name="Path 838394" d="M795.138,1104.076c0,.189-.008.389-.011.582,0-.193.009-.393.011-.582" transform="translate(-593.177 -823.656)" fill="#1c182a"/>
        <path id="Path_838395" data-name="Path 838395" d="M794.8,1082.346c.007.112.014.224.02.339-.006-.115-.013-.228-.02-.339" transform="translate(-592.936 -807.445)" fill="#1c182a"/>
        <path id="Path_838396" data-name="Path 838396" d="M408.895,1003.219c.1-.72.194-1.428.293-2.119q-.149,1.038-.293,2.119" transform="translate(-305.042 -746.834)" fill="#1c182a"/>
        <path id="Path_838397" data-name="Path 838397" d="M795.113,1089.234c0,.079,0,.166,0,.247,0-.08,0-.167,0-.247" transform="translate(-593.166 -812.584)" fill="#1c182a"/>
        <path id="Path_838398" data-name="Path 838398" d="M794.944,1111.584c-.007.248-.013.495-.022.749.008-.254.015-.5.022-.749" transform="translate(-593.024 -829.257)" fill="#1c182a"/>
        <path id="Path_838399" data-name="Path 838399" d="M567.712,782.588a8.123,8.123,0,0,1-.463-.958q-.014,1.351-.02,2.681a5.4,5.4,0,0,1,.483-1.723" transform="translate(-423.161 -583.106)" fill="#a9c8eb"/>
        <path id="Path_838400" data-name="Path 838400" d="M574.272,291.915c-2.178,3.816-8.278,11.887-22.976,17.715a9.609,9.609,0,0,0,7.139,3.931c4.376.114,11.781-5.892,15.884-10,0-.01,0-.023,0-.033a107.54,107.54,0,0,1-.044-11.614" transform="translate(-411.275 -217.772)" fill="#e7885d"/>
        <path id="Path_838401" data-name="Path 838401" d="M649.547,218.771a1.664,1.664,0,0,0,.2.343c1.183,1.462,4.255.424,5-2.528s2.081-3.774,1.333-7c0,0-.044-.146-.138-.368-1.359,1.086-3.566,1.59-6.327,1.736.063,2.656.044,5.294-.064,7.815" transform="translate(-484.572 -156.08)" fill="#e58363"/>
        <path id="Path_838402" data-name="Path 838402" d="M557.575,243.881a9.811,9.811,0,1,0,8.4-11.039,9.811,9.811,0,0,0-8.4,11.039" transform="translate(-415.892 -173.636)" fill="#f4997b"/>
        <path id="Path_838403" data-name="Path 838403" d="M427.146,272.141a9.967,9.967,0,0,0,1.3-.087,9.806,9.806,0,0,0,3.183-18.432c-.039.009-.074.028-.115.033a1.83,1.83,0,0,1-1.6-.722,9.783,9.783,0,0,0-10.652,3.534l0,0c.012.04.025.077.037.118.3,1,.6,1.976.917,2.931.013.039.026.076.039.116.286.863.579,1.7.877,2.518.084.232.169.456.255.684q.361.965.732,1.873c.09.22.178.444.269.659.327.779.658,1.534.993,2.236a11.891,11.891,0,0,0,1.972,2.784,20.28,20.28,0,0,0,1.793,1.754" transform="translate(-312.777 -188.383)" fill="#f4997b"/>
        <path id="Path_838404" data-name="Path 838404" d="M497.07,263.636v0h0Z" transform="translate(-370.822 -196.673)" fill="#d06f54"/>
        <path id="Path_838405" data-name="Path 838405" d="M497.066,229.715a5.1,5.1,0,0,0,1.9,1.193,7.761,7.761,0,0,0,1.091.337.665.665,0,0,0,.277-1.3h0l-.109-.026a6.37,6.37,0,0,1-1.546-.615,2.559,2.559,0,0,1-.7-.575.97.97,0,0,1-.238-.621l.006-.106.006-.055-.006.052a7.966,7.966,0,0,1,.764-2.347,7.714,7.714,0,0,0,.741-3.035h0l0-.295a12.776,12.776,0,0,0-1.8-6.3.665.665,0,1,0-1.179.615,11.425,11.425,0,0,1,1.647,5.683l0,.267h0a6.384,6.384,0,0,1-.634,2.54,9.168,9.168,0,0,0-.863,2.721l-.015.257a2.359,2.359,0,0,0,.664,1.608" transform="translate(-370.168 -160.888)" fill="#d06f54"/>
        <path id="Path_838406" data-name="Path 838406" d="M460.072,238.811c.04-.006.075-.025.114-.033,1.074-.24,1.758-1.688,1.535-3.334-.231-1.705-1.344-2.962-2.485-2.807s-1.88,1.662-1.649,3.367a4.006,4.006,0,0,0,.889,2.084,1.829,1.829,0,0,0,1.6.722" transform="translate(-341.335 -173.54)" fill="#2a1517"/>
        <path id="Path_838407" data-name="Path 838407" d="M554.32,226.045c1.142-.154,1.88-1.662,1.649-3.367s-1.344-2.961-2.485-2.807-1.88,1.662-1.649,3.367,1.344,2.961,2.486,2.807" transform="translate(-411.645 -164.016)" fill="#2a1517"/>
        <path id="Path_838408" data-name="Path 838408" d="M511.852,280.082a.665.665,0,0,0-.929-.144c-3.3,2.409-5.812,3.012-7.543,3.014a5.993,5.993,0,0,1-2.278-.415,3.916,3.916,0,0,1-.548-.272l-.123-.08-.023-.017h0a.665.665,0,0,0-.83,1.039,6.294,6.294,0,0,0,3.8,1.076c2.052,0,4.862-.733,8.328-3.27a.666.666,0,0,0,.144-.93" transform="translate(-372.506 -208.741)" fill="#d06f54"/>
        <path id="Path_838409" data-name="Path 838409" d="M580.9,812.465v8.84a2.981,2.981,0,0,0,2.981,2.981h39.042a2.981,2.981,0,0,0,2.981-2.981v-6.572c-13.132-1.455-24.059-3.6-24.059-3.6a3.37,3.37,0,0,1-1.19-1.723,28.326,28.326,0,0,1-5.81,2.052s-9.032,1.564-13.944,1" transform="translate(-433.356 -603.833)" fill="#532d27"/>
        <path id="Path_838410" data-name="Path 838410" d="M580.9,624.151v28.029a77.523,77.523,0,0,1,10.03-.06c.5,0-4.471-3.808-2.98-4.47s6.127,2.649,9.273,3.476a12.061,12.061,0,0,1,2.262.87c.014-.3.024-.466.024-.466l26.4-1.971V624.151a2.981,2.981,0,0,0-2.981-2.979H583.876a2.98,2.98,0,0,0-2.981,2.979" transform="translate(-433.356 -463.402)" fill="#532d27"/>
        <path id="Path_838411" data-name="Path 838411" d="M564.214,534.861q.006-1.332.02-2.681a4.949,4.949,0,0,1-.072-4.274s-1.1-2.675.229-4.275c.4-15.454,1.389-31.847,2.382-45.423.642-8.779,1.284-16.378,1.765-21.783.24-2.7.441-4.856.582-6.333s.221-2.277.221-2.279a.509.509,0,1,0-1.013-.1h0c0,.009-5.14,51.389-5.14,89.178,0,11.043.437,20.923,1.578,28.053a.509.509,0,0,0,1.006-.161c-1.126-7.029-1.566-16.879-1.566-27.892,0-.233,0-.472,0-.706a5.85,5.85,0,0,1,.006-1.323" transform="translate(-420.146 -333.656)" fill="#5d86af"/>
        <path id="Path_838412" data-name="Path 838412" d="M534.091,446.132a.509.509,0,1,0,.707.733l12.159-11.727L557,448.083a.509.509,0,1,0,.8-.624l-10.737-13.842Z" transform="translate(-398.324 -323.483)" fill="#5d86af"/>
        <path id="Path_838413" data-name="Path 838413" d="M456.7,927.03H442.311l-2.594,12.554-31.734,4.632c-.038.25-.076.491-.114.746q-.064.436-.128.88c-.1.692-.2,1.4-.293,2.12-.038.289-.077.573-.115.866q-.182,1.4-.353,2.871c-.008.065-.016.126-.024.192h0a139.422,139.422,0,0,1,20.994,1.166c9.672,1.121,19.5,2.257,29.031,4.276a181.311,181.311,0,0,1,32.046,10.258c5.451,2.271,11.041,4.623,16.459,7.269h0c0-.071,0-.137.006-.208.008-.254.015-.5.022-.748q.019-.679.03-1.325c0-.193.009-.393.011-.582.008-.568.011-1.11.011-1.638,0-.18,0-.355,0-.53,0-.468-.009-.922-.019-1.354,0-.081,0-.168,0-.247-.014-.5-.035-.963-.059-1.41-.006-.115-.013-.227-.02-.339-.028-.446-.059-.875-.1-1.264-.658-6.467-1.566-12.383-2.555-17.615l-46.017-6.232Z" transform="translate(-303.597 -691.577)" fill="#181525"/>
      </g>
    </g>
  </g>
</svg>
