<svg id="Group_1072056" data-name="Group 1072056" xmlns="http://www.w3.org/2000/svg" xmlns:xlink="http://www.w3.org/1999/xlink" width="90.686" height="94.415" viewBox="0 0 90.686 94.415">
  <defs>
    <clipPath id="clip-path">
      <rect id="Rectangle_377657" data-name="Rectangle 377657" width="90.686" height="94.415" fill="#0a5e6b" stroke="#0a5e6b" stroke-width="1.5"/>
    </clipPath>
  </defs>
  <g id="Group_1072051" data-name="Group 1072051" clip-path="url(#clip-path)">
    <path id="Path_838487" data-name="Path 838487" d="M88.733,0c.167.067.331.149.5.2a5.829,5.829,0,0,1,4.307,5.418c.013.245.01.491.01.737q0,40.843,0,81.687a6.38,6.38,0,0,1-.943,3.693,5.884,5.884,0,0,1-5.213,2.68q-17.535-.011-35.071,0-11.192,0-22.385,0a5.831,5.831,0,0,1-5.853-4.6A3.45,3.45,0,0,1,24,89.172a1.389,1.389,0,0,1,1.188-1.518,1.425,1.425,0,0,1,1.57,1.14c.59,2.224,1.415,2.853,3.749,2.853H87.033c2.621,0,3.723-1.1,3.723-3.715q0-40.751,0-81.5c0-2.553-1.116-3.663-3.679-3.663H30.367c-2.175,0-3.076.709-3.6,2.81a1.446,1.446,0,0,1-1.538,1.189A1.41,1.41,0,0,1,24,5.188a5.8,5.8,0,0,1,3.8-4.824c.346-.127.7-.242,1.045-.363Z" transform="translate(-18.019)" fill="#0a5e6b" stroke="#0a5e6b" stroke-width="1.5"/>
    <path id="Path_838488" data-name="Path 838488" d="M326.662,55.041c0-8.88-.016-17.76.024-26.64,0-.919-.257-1.136-1.134-1.083a37.379,37.379,0,0,1-3.822,0c-.682-.028-.906.145-.892.855.047,2.4.018,4.793.018,7.19q0,16.592,0,33.185a8.793,8.793,0,0,1-.013.921,1.42,1.42,0,0,1-1.389,1.354,1.4,1.4,0,0,1-1.39-1.431c-.014-.245-.005-.491-.005-.737q0-26.179-.014-52.358c0-1.448.275-2.691,1.609-3.482.359-.213.277-.515.279-.805.008-1.506-.009-3.012.008-4.517a3.732,3.732,0,1,1,7.464.014c.017,1.475.011,2.95,0,4.425a.862.862,0,0,0,.452.9,3.28,3.28,0,0,1,1.611,3.108q-.024,12.537-.008,25.073,0,21.2,0,42.4a6.251,6.251,0,0,1-.187,1.638c-.879,3.292-1.721,6.594-2.622,9.88a2.948,2.948,0,0,1-3.908,2.1A2.753,2.753,0,0,1,320.9,95.1c-.947-3.5-1.863-7-2.783-10.5a2.55,2.55,0,0,1-.056-.641c0-2.612-.01-5.224,0-7.835,0-1.021.526-1.6,1.385-1.6s1.393.589,1.4,1.6c.018,1.9.044,3.811-.012,5.714-.023.788.241.988,1,.953,1.3-.06,2.612-.059,3.915,0,.744.033.927-.206.925-.926q-.037-13.412-.016-26.825m-3.025,39.495c.192-.176.264-.21.277-.259.737-2.748,1.465-5.5,2.2-8.245.131-.486-.16-.494-.5-.493-1.24,0-2.48.019-3.719-.006-.542-.011-.621.18-.477.654.231.761.4,1.54.606,2.309.523,1.971,1.051,3.942,1.61,6.04m.282-75.68c.792-.092,2.089.421,2.59-.2.473-.59.134-1.815.152-2.761,0-.031,0-.061,0-.092.026-.473-.217-.656-.677-.654q-2.232.012-4.463,0c-.475,0-.632.209-.671.665-.258,3.047-.266,3.047,2.825,3.047Zm-.222,5.715a12.871,12.871,0,0,0,2.417-.028c1.224-.238.323-1.246.508-1.877.091-.31.411-1.06-.515-1.048-1.055.014-2.112,0-3.167,0-2.1,0-2.068,0-2.1,2.035-.01.687.125,1.014.9.93a18.665,18.665,0,0,1,1.955-.015m.912-14.9c0-.7,0-1.408,0-2.112,0-.6-.266-1.035-.908-1.05-.7-.016-.967.437-.966,1.081,0,1.377.043,2.756-.017,4.131-.037.847.512.646.971.66.491.016,1.013.118.936-.692-.064-.667-.013-1.346-.014-2.019" transform="translate(-238.781 -2.807)" fill="#0a5e6b" stroke="#0a5e6b" stroke-width="1.5"/>
    <path id="Path_838489" data-name="Path 838489" d="M7.411,42.47c.933,0,1.866-.016,2.8,0a4.465,4.465,0,0,1,4.484,4.376,4.518,4.518,0,0,1-4.4,4.49c-1.536.07-1.536.07-1.536,1.57,0,1.629.032,3.258-.015,4.886-.019.663.206.861.844.8a5.017,5.017,0,0,1,2.023.243,4.417,4.417,0,0,1-1.067,8.614c-1.785.151-1.785.151-1.785,1.922,0,1.536.035,3.074-.016,4.609-.022.672.214.849.848.8a5.06,5.06,0,0,1,1.756.135,4.427,4.427,0,0,1-1.083,8.716c-1.506.035-1.506.035-1.506,1.507,0,1.66.03,3.32-.015,4.978-.018.661.21.861.848.817a5.286,5.286,0,0,1,1.848.166,4.447,4.447,0,0,1,3.228,4.621,4.5,4.5,0,0,1-4.315,4.087c-1.595.119-1.595.119-1.595,1.709,0,1.629.019,3.258-.01,4.886-.009.525.159.708.687.675a6.049,6.049,0,0,1,1.76.121,4.463,4.463,0,0,1,3.481,4.616,4.4,4.4,0,0,1-4.26,4.108c-1.988.054-3.98.044-5.969.01a4.412,4.412,0,0,1-4.433-4.315,4.481,4.481,0,0,1,4.324-4.544c1.624-.089,1.624-.089,1.624-1.68s-.022-3.2.011-4.794c.012-.582-.132-.846-.772-.79a5.25,5.25,0,0,1-2.116-.243,4.414,4.414,0,0,1,1.06-8.614c1.817-.152,1.817-.152,1.817-1.986,0-1.567-.015-3.135.008-4.7.007-.474-.137-.657-.634-.641a6.516,6.516,0,0,1-2.035-.15,4.424,4.424,0,0,1,1.083-8.7c1.578-.043,1.578-.043,1.578-1.628,0-1.659-.018-3.319.01-4.978.009-.521-.162-.714-.689-.693a6.339,6.339,0,0,1-2.035-.172A4.46,4.46,0,0,1,.027,62.59,4.529,4.529,0,0,1,4.341,58.6c1.619-.115,1.619-.115,1.619-1.693,0-1.629-.017-3.258.009-4.886.008-.513-.141-.724-.681-.689A6.17,6.17,0,0,1,3.437,51.2a4.413,4.413,0,0,1,.8-8.713c1.055-.041,2.114-.007,3.171-.007V42.47m-.085,38.4c.932,0,1.863.018,2.794,0a1.682,1.682,0,0,0,1.764-1.642,1.66,1.66,0,0,0-1.725-1.675q-2.794-.038-5.588,0a1.663,1.663,0,0,0-1.757,1.639,1.681,1.681,0,0,0,1.812,1.682c.9.018,1.8,0,2.7,0m.062-35.636c-.962,0-1.925-.024-2.886.007a1.654,1.654,0,0,0-.086,3.306q2.931.077,5.865,0a1.654,1.654,0,1,0-.1-3.306c-.93-.03-1.862-.006-2.793-.006M7.379,113.18c.931,0,1.863.023,2.793-.006a1.654,1.654,0,1,0,.117-3.306q-2.931-.078-5.865,0a1.654,1.654,0,0,0,.069,3.307c.961.033,1.924.007,2.886.008M7.324,64.712v0c.962,0,1.926.036,2.886-.01a1.658,1.658,0,1,0,.04-3.315c-1.923-.054-3.849-.052-5.772,0A1.662,1.662,0,1,0,4.531,64.7c.929.041,1.862.008,2.793.008M7.359,93.7v.005c-.962,0-1.926-.036-2.886.01a1.657,1.657,0,0,0-.028,3.313c1.923.056,3.849.054,5.772.006a1.664,1.664,0,1,0-.065-3.326c-.929-.039-1.862-.008-2.793-.008" transform="translate(0 -32.003)" fill="#0a5e6b" stroke="#0a5e6b" stroke-width="1.5"/>
    <path id="Path_838490" data-name="Path 838490" d="M104.451,215.4q-10.111,0-20.222,0a2.324,2.324,0,0,1-1.186-.146,1.368,1.368,0,0,1,.351-2.568,4.04,4.04,0,0,1,.927-.047q20.129,0,40.258,0c.155,0,.311,0,.466,0,1,.032,1.639.571,1.64,1.388s-.634,1.37-1.639,1.372q-6.99.013-13.979,0h-6.616" transform="translate(-61.777 -160.253)" fill="#0a5e6b" stroke="#0a5e6b" stroke-width="1.5"/>
    <path id="Path_838491" data-name="Path 838491" d="M104.516,322.48h19.941c.31,0,.623-.01.931.018a1.358,1.358,0,0,1,.171,2.694,4.194,4.194,0,0,1-.926.051q-20.128,0-40.256,0a4.154,4.154,0,0,1-1.017-.065,1.357,1.357,0,0,1,.19-2.675,8.145,8.145,0,0,1,.931-.022h20.034" transform="translate(-61.792 -243.037)" fill="#0a5e6b" stroke="#0a5e6b" stroke-width="1.5"/>
    <path id="Path_838492" data-name="Path 838492" d="M104.51,157.838h20.035a7.366,7.366,0,0,1,.931.022,1.286,1.286,0,0,1,1.2,1.211,1.251,1.251,0,0,1-.937,1.414,3.369,3.369,0,0,1-1.007.112q-20.268.008-40.536,0a3.142,3.142,0,0,1-.832-.061,1.285,1.285,0,0,1-1.057-1.422,1.269,1.269,0,0,1,1.236-1.261,7.864,7.864,0,0,1,.931-.019H104.51" transform="translate(-61.791 -118.952)" fill="#0a5e6b" stroke="#0a5e6b" stroke-width="1.5"/>
    <path id="Path_838493" data-name="Path 838493" d="M104.528,267.557q10.026,0,20.053,0c1.425,0,2.113.449,2.121,1.373s-.684,1.39-2.1,1.39q-20.1,0-40.2,0a5.081,5.081,0,0,1-1.021-.062,1.344,1.344,0,0,1-.018-2.629,5.371,5.371,0,0,1,1.112-.069q10.026-.005,20.053,0" transform="translate(-61.797 -201.646)" fill="#0a5e6b" stroke="#0a5e6b" stroke-width="1.5"/>
    <path id="Path_838494" data-name="Path 838494" d="M104.528,105.645q-10.026,0-20.053,0a6.576,6.576,0,0,1-1.023-.042,1.346,1.346,0,0,1-.073-2.648,4.827,4.827,0,0,1,1.019-.07q20.1,0,40.2,0a6.361,6.361,0,0,1,.745.024,1.406,1.406,0,0,1,1.358,1.374,1.391,1.391,0,0,1-1.374,1.35c-.309.027-.621.015-.932.015H104.528" transform="translate(-61.795 -77.536)" fill="#0a5e6b" stroke="#0a5e6b" stroke-width="1.5"/>
    <path id="Path_838495" data-name="Path 838495" d="M94.7,45.569q-5.314,0-10.627,0c-1.206,0-1.8-.472-1.786-1.385.012-.9.626-1.375,1.824-1.375q10.627-.007,21.254,0c.093,0,.187,0,.28,0,.956.065,1.515.589,1.506,1.411s-.557,1.341-1.543,1.344c-3.635.013-7.271,0-10.907.006" transform="translate(-61.777 -32.259)" fill="#0a5e6b" stroke="#0a5e6b" stroke-width="1.5"/>
  </g>
</svg>
